<svg width="163" height="101" viewBox="0 0 163 101" fill="none" xmlns="http://www.w3.org/2000/svg">
<rect x="36" y="46.8525" width="113.413" height="54" rx="10" transform="rotate(-7.1671 36 46.8525)" fill="#FFDD63"/>
<path d="M39.9906 59.2271C36.9181 58.4038 31.8457 49.662 32.7291 46.3652C33.6124 43.0685 44.7538 44.9086 47.8264 45.7319C50.8989 46.5552 50.5286 51.0531 49.6452 54.3499C48.7618 57.6466 43.0631 60.0504 39.9906 59.2271Z" fill="#FFDD63"/>
<path d="M65.7998 52.8727C65.7678 55.4716 65.5859 60.837 65.254 68.9689C64.9908 76.1347 64.8015 81.9013 64.6862 86.2687C64.2789 86.422 63.692 86.5224 62.9254 86.5697C62.1928 86.6469 61.0599 86.7329 59.5268 86.8274C59.114 86.372 58.7582 85.8008 58.4593 85.1139C58.1904 84.3931 57.8947 83.4976 57.5722 82.4275C57.172 81.1377 56.8802 80.306 56.6969 79.9326C55.8715 83.7026 55.3566 86.0107 55.1523 86.8569C54.1421 87.1116 53.1579 87.2685 52.1997 87.3276C51.3054 87.3828 50.4551 87.3711 49.6487 87.2926L49.2283 85.1544C48.0924 80.2551 47.0695 75.1083 46.1596 69.7141C45.2797 64.286 44.5892 59.0706 44.0882 54.068C45.3201 53.7675 46.5907 53.5769 47.9003 53.4961L50.0591 53.411C50.9574 53.4197 51.7259 53.4044 52.3646 53.365C52.5811 54.7944 52.8046 57.3775 53.0351 61.1144L53.0913 62.0247C53.3317 65.9213 53.5999 68.71 53.896 70.391C53.9962 69.936 54.1125 69.2234 54.245 68.2534C54.3476 67.3174 54.475 66.524 54.6272 65.8734C54.7794 65.2228 55.0484 64.6451 55.434 64.1404C56.4975 64.7481 57.4061 66.7439 58.1599 70.1279L57.9105 63.7472C57.7269 58.6929 57.6578 55.2346 57.7032 53.3722C58.8992 53.0099 60.2637 52.7815 61.7968 52.6869C63.0424 52.61 64.2601 52.599 65.4497 52.6539L65.7998 52.8727ZM75.3892 63.4383C75.4211 63.4363 75.4211 63.4363 75.3892 63.4383C75.3872 63.4063 75.4022 63.3894 75.4341 63.3874C76.1691 62.8291 77.0228 62.3756 77.9952 62.0271C78.9976 61.6447 79.9938 61.4229 80.9839 61.3618C83.0919 61.2317 84.7523 61.6423 85.9652 62.5934C86.9088 63.3367 87.5185 65.9441 87.7944 70.4156C87.8751 71.7251 87.9664 73.7233 88.068 76.4101C88.146 78.7137 88.2156 80.3605 88.2766 81.3507C88.3436 82.4366 88.4505 83.6483 88.5971 84.9858C86.8562 85.3497 85.1374 85.5519 83.4407 85.5925L81.189 85.7314C81.066 84.7772 80.9197 82.9267 80.7503 80.1799L80.6025 77.7845L80.3447 74.3859C80.3009 74.1962 80.2653 73.8778 80.2377 73.4307C80.1466 72.4745 80.0055 71.7458 79.8143 71.2446C79.655 70.7414 79.5075 70.4299 79.3719 70.3101C79.2682 70.1882 79.0986 70.0384 78.8632 69.8605C78.5979 69.7166 78.2256 69.6594 77.7465 69.689C77.1716 69.7244 76.6734 69.9636 76.2519 70.4064C75.8303 70.8492 75.6332 71.5506 75.6603 72.5108C75.658 72.9918 75.6873 73.7274 75.7484 74.7175C75.7977 75.516 75.9015 76.6798 76.06 78.209C76.2224 79.802 76.3282 80.9978 76.3775 81.7962C76.4662 83.2335 76.4811 84.515 76.4223 85.6408C75.5738 85.9176 74.879 86.0887 74.338 86.1541C73.8309 86.2495 73.257 86.301 72.6162 86.3084C72.3268 86.2942 71.8627 86.3068 71.2239 86.3462C70.4893 86.3916 69.7726 86.4678 69.0739 86.5751L68.8375 82.7423L68.4467 77.1879C68.2571 74.6347 67.9564 70.0205 67.5445 63.3452C67.1682 57.2448 66.9498 53.1865 66.8896 51.1704C67.9195 51.2351 68.7219 51.2497 69.2968 51.2142C69.8398 51.1807 70.3648 51.1163 70.8719 51.0209L71.6805 50.8748C72.7285 50.714 73.2845 50.6316 73.3484 50.6276C74.1149 50.5803 74.5231 50.6994 74.5727 50.9849C74.6918 51.8753 74.8321 53.63 74.9937 56.249L75.2148 60.6116L75.3892 63.4383ZM109.732 59.4439C109.742 59.6036 109.775 59.8741 109.83 60.2554C109.918 60.6347 109.971 60.9841 109.991 61.3035C110.01 62.1358 110.071 63.3825 110.174 65.0433C110.312 67.2791 110.431 68.9549 110.532 70.0708L110.709 72.9453L110.935 75.8169C111.051 77.7013 111.122 79.6366 111.148 81.6227L111.178 82.1018C111.21 82.6129 111.17 83.016 111.06 83.3114C110.948 83.5748 110.624 83.7711 110.087 83.9004L104.002 84.2758C103.254 84.0976 102.86 83.6891 102.821 83.0503L102.8 82.7149C102.033 83.2752 101.18 83.7446 100.242 84.1231C99.3013 84.4697 98.3839 84.6706 97.4896 84.7257C95.7968 84.8302 94.3172 84.2322 93.0507 82.9317C91.8161 81.6292 90.8493 79.9896 90.1503 78.0129C89.4493 76.0043 89.0396 74.0418 88.9214 72.1254C88.7914 70.0175 89.0574 68.0934 89.7195 66.3533C90.3796 64.5813 91.3499 63.1589 92.6302 62.086C93.9106 61.0131 95.3642 60.4105 96.9912 60.278C97.9813 60.2169 98.9125 60.2396 99.7847 60.3461C100.657 60.4526 101.212 60.6108 101.449 60.8205C101.439 60.6608 101.394 60.4552 101.315 60.2036C101.235 59.9521 101.239 59.7594 101.327 59.6258C101.387 59.558 101.609 59.5122 101.992 59.4886C102.567 59.4531 103.32 59.4547 104.253 59.4934C105.215 59.4981 105.825 59.5086 106.082 59.5248L109.109 59.4823L109.732 59.4439ZM96.3106 72.6314C96.3973 74.0367 96.7896 75.1988 97.4875 76.1175C98.1834 77.0044 99.0744 77.4143 100.16 77.3473C100.863 77.3039 101.362 77.0808 101.658 76.6778C101.954 76.2748 102.114 75.7519 102.138 75.1092C102.195 74.4645 102.183 73.5034 102.105 72.2258L102.028 70.9802C101.943 69.6068 101.854 68.6825 101.761 68.2074C101.697 67.6983 101.533 67.3718 101.267 67.2279C101.032 67.0501 100.611 66.9799 100.004 67.0173C98.9818 67.0804 98.1691 67.419 97.5658 68.0334C96.9605 68.6157 96.5867 69.3121 96.4443 70.1224C96.2921 70.773 96.2475 71.6093 96.3106 72.6314ZM121.893 58.886C123.55 58.7196 125.014 58.5491 126.286 58.3745L126.953 58.2852C127.175 58.2395 127.399 58.2257 127.624 58.2438C127.88 58.228 128.087 58.2152 128.247 58.2054L129.349 58.1374C129.555 59.4071 129.665 60.1377 129.676 60.3294C129.686 60.4891 129.685 60.9861 129.672 61.8205L129.657 62.3504L129.674 63.4074C129.688 63.631 129.742 63.9963 129.838 64.5034L122.364 64.9645C122.677 70.0428 122.854 73.1579 122.893 74.3097C123.409 74.887 124.299 75.2809 125.562 75.4915C126.826 75.7021 128.128 75.766 129.47 75.6833L130.473 75.5733L130.499 76.0045L130.559 76.1931L130.556 76.1452C130.83 77.4749 131 78.6667 131.065 79.7207C131.128 80.7427 131.042 81.6778 130.805 82.526C129.979 82.6411 129.135 82.7253 128.272 82.7785C125.366 82.9578 122.79 82.7801 120.545 82.2453C118.33 81.6766 116.819 80.5836 116.014 78.9661C115.62 77.2591 115.323 75.5622 115.123 73.8753C114.921 72.1565 114.752 70.1952 114.616 67.9914L114.468 65.5959C114.055 65.6535 113.672 65.6931 113.321 65.7148C113 65.7025 112.711 65.7043 112.456 65.7201L111.018 65.8087L110.772 59.4759C111.636 59.4546 112.771 59.4006 114.177 59.3139L113.66 50.1604C114.359 50.0531 114.963 49.9838 115.475 49.9522C115.986 49.9207 116.594 49.9152 117.301 49.9357L117.639 49.963C118.41 49.9795 119.003 49.975 119.418 49.9494C120.025 49.912 120.645 49.8256 121.277 49.6904L121.815 58.4098L121.893 58.886Z" fill="#8B89FF"/>
<path d="M161.5 47C160.5 58 152.232 66 144.5 66C136.768 66 130 56.2843 130 48C130 39.7157 132.768 34 140.5 34C148.232 34 158 33 161.5 47Z" fill="#FFDD63"/>
<path d="M138.221 64.9469C138.551 63.3967 138.893 62.107 139.246 61.0778C139.601 60.0087 140.156 58.906 140.913 57.7697L140.851 57.8278C141.105 57.3957 141.691 56.6142 142.608 55.4831L143.045 54.9569C144.128 53.631 144.944 52.5367 145.492 51.6739C146.041 50.7711 146.329 49.8999 146.356 49.0603C146.392 47.9409 145.838 47.1427 144.692 46.6656C144.336 46.534 144.038 46.4644 143.799 46.4567C143.359 46.4426 142.995 46.5709 142.706 46.8417C142.417 47.1126 142.063 47.5414 141.644 48.1283C141.561 48.2056 141.415 48.401 141.205 48.7144C140.996 48.9879 140.768 49.2207 140.522 49.4128C140.276 49.605 140.011 49.7366 139.729 49.8075C138.687 49.854 137.746 49.8638 136.906 49.8368C136.227 49.8149 135.288 49.7447 134.092 49.6261L132.656 49.4599L131.043 49.2278C131.232 47.0728 131.979 45.0158 133.283 43.0567C134.586 41.0976 136.297 39.5318 138.416 38.3594C140.536 37.147 142.796 36.5793 145.195 36.6565C147.513 36.7312 149.637 37.2798 151.565 38.3023C153.533 39.3261 155.07 40.6963 156.175 42.4127C157.32 44.1305 157.86 46.0288 157.793 48.1077C157.71 50.6664 156.609 53.1723 154.489 55.6253L152.499 57.7824C151.88 58.3628 151.3 58.9845 150.758 59.6474C150.047 60.585 149.454 61.6265 148.977 62.7717C148.541 63.8783 148.138 65.206 147.768 66.7549L147.702 66.9329C147.527 67.4075 147.434 67.7847 147.425 68.0646C147.418 68.3044 147.468 68.6062 147.576 68.9699C146.853 69.0667 145.991 69.119 144.99 69.1268C144.029 69.1359 143.19 69.1088 142.471 69.0457L138.513 68.9183C138.281 68.6707 138.129 68.4257 138.057 68.1833C138.025 67.9421 138.014 67.6416 138.026 67.2818L138.221 64.9469ZM137.754 79.4594C137.625 78.4947 137.581 77.3727 137.622 76.0934L137.728 74.656L137.767 73.4567L137.85 72.739L137.869 72.1393C138.964 71.6943 140.631 71.5078 142.87 71.5798C145.029 71.6493 146.384 71.833 146.934 72.1309C146.973 72.1721 147.009 72.2934 147.043 72.4945C147.076 72.6957 147.089 72.9162 147.081 73.1561C147.071 73.476 147.008 74.1943 146.892 75.3111L146.388 79.7972L137.754 79.4594Z" fill="#8B89FF"/>
<path d="M15.3981 27.8747C16.774 27.8704 18.3262 27.9296 20.0546 28.0522L21.5909 28.1434L22.4071 28.1888L22.5062 29.1965C22.5393 29.5484 22.6057 30.3162 22.7054 31.4999C22.805 32.6516 22.8561 33.6435 22.8587 34.4754C22.8638 36.1074 22.7409 37.7238 22.4899 39.3246C22.2704 40.7653 21.7142 41.9831 20.8213 42.9779C19.9284 43.9726 18.7947 44.7282 17.4203 45.2445C15.0865 45.9558 12.9276 46.3145 10.9436 46.3207C9.40765 46.3255 8.01491 46.0899 6.76542 45.6138C4.23393 44.5017 2.57984 42.5548 1.80315 39.7732C1.57645 38.9099 1.38096 37.7905 1.21666 36.4151C1.21776 36.7671 1.03282 33.9036 0.661827 27.8247C0.658629 26.8008 0.67208 25.9847 0.702181 25.3766C0.757185 22.4964 0.910588 20.3839 1.16239 19.0391C1.60239 16.4778 2.63649 14.5865 4.26468 13.3654C5.47788 12.4656 7.13997 11.8524 9.25096 11.5258C9.98666 11.4275 10.7385 11.3772 11.5065 11.3748C14.7065 11.3648 17.333 12.1726 19.3861 13.7982C21.4391 15.3918 22.4702 17.6766 22.4795 20.6526L22.3883 22.1889L22.3904 22.8609C22.1665 22.8936 21.8946 22.9104 21.5746 22.9114C21.2546 22.9124 20.9666 22.9133 20.7106 22.9141L18.4066 22.9213C17.1906 22.9251 16.0224 22.8647 14.902 22.7402C14.1258 20.1187 13.2577 18.8094 12.2977 18.8124C12.1377 18.8129 11.9617 18.7974 11.7696 18.766C11.5775 18.7346 11.4014 18.7192 11.2414 18.7197C10.7294 18.7213 10.282 18.9147 9.89925 19.2999C9.86735 19.332 9.75655 19.7163 9.56685 20.4529C8.96515 22.4708 8.67044 25.4477 8.68274 29.3837C8.68883 31.3357 8.75788 32.9515 8.88988 34.2311C9.12057 36.3744 9.55682 37.733 10.1986 38.307C10.5192 38.498 10.7756 38.6252 10.9678 38.6886C11.3199 38.7195 11.7359 38.7022 12.2157 38.6367C12.7274 38.5391 13.1749 38.4097 13.5584 38.2485C14.1017 38.0228 14.4521 37.5097 14.6096 36.7092C14.7044 36.3249 14.7989 35.8286 14.893 35.2203C14.9871 34.612 15.0179 34.2439 14.9855 34.116L13.8336 34.1196C12.6498 34.1873 11.7375 34.0942 11.0967 33.8402C11.0306 33.1684 10.996 32.3365 10.9929 31.3445L10.9912 30.8165C10.9908 30.6885 10.9902 30.4805 10.9893 30.1925C11.0203 29.8724 10.9864 29.2805 10.8877 28.4168C11.1437 28.416 11.6875 28.3503 12.5191 28.2197C13.7984 27.9917 14.7581 27.8767 15.3981 27.8747ZM36.0124 43.5064L35.9165 43.5547L35.9645 43.5546C35.1981 44.069 34.3194 44.4877 33.3284 44.8108C32.3373 45.1019 31.3298 45.249 30.3058 45.2522C28.1938 45.2588 26.5602 44.7519 25.405 43.7315C24.5065 42.9343 24.0503 40.2958 24.0363 35.8158C24.0322 34.5038 24.0579 32.5037 24.1135 29.8155C24.1703 27.5113 24.1972 25.8632 24.1941 24.8712C24.1907 23.7832 24.1549 22.5673 24.0867 21.2235C25.7819 20.9623 27.5096 20.8609 29.2698 20.9194L31.5258 20.9123C31.5928 21.8721 31.6306 23.728 31.6392 26.48C31.6448 28.272 31.6817 29.8719 31.7501 31.2797C31.7834 31.6956 31.8011 32.2395 31.8032 32.9115C31.9379 35.0551 32.3261 36.3979 32.9678 36.9399C33.2242 37.0671 33.5764 37.13 34.0244 37.1286C34.6004 37.1268 35.0958 36.9172 35.5105 36.4999C35.9572 36.0825 36.211 35.3937 36.272 34.4336C36.3332 33.5374 36.3632 32.8813 36.3619 32.4653C36.3585 31.3773 36.307 30.2574 36.2074 29.1057C36.1742 28.7218 36.1404 28.1619 36.1061 27.426C36.0717 26.6581 36.0536 25.9862 36.0518 25.4102C36.0466 23.7462 36.1223 22.37 36.2789 21.2815C37.1102 21.0549 37.7818 20.9248 38.2937 20.8912C38.8055 20.8256 39.3815 20.8078 40.0216 20.8378C40.3097 20.8689 40.8057 20.8833 41.5097 20.8811C42.2457 20.8788 42.9656 20.8446 43.6694 20.7784C43.6814 24.6184 43.7063 27.4663 43.7441 29.3222C43.8211 33.482 43.8629 36.6339 43.8696 38.7778C43.8744 40.3138 43.8493 42.5219 43.7943 45.4021L42.6422 45.3577C41.9702 45.3598 41.3462 45.3778 40.7703 45.4116C39.8106 45.5106 38.8188 45.5617 37.7948 45.5649C36.6748 45.5684 36.1145 45.4581 36.1138 45.2341C36.0485 44.8183 36.0147 44.2584 36.0125 43.5544L36.0124 43.5064ZM53.0338 34.5252C53.0691 35.5811 53.1195 36.3649 53.1851 36.8767C53.2826 37.3564 53.5082 37.8677 53.8619 38.4106C54.1194 38.8898 54.4565 39.2568 54.8733 39.5115C55.2901 39.7662 55.7225 39.8928 56.1705 39.8914C56.8425 39.8893 57.3854 39.5356 57.7992 38.8303C58.2129 38.093 58.3856 37.0205 58.3172 35.6127C59.2456 35.7378 60.2377 35.7667 61.2935 35.6994L65.8062 35.9253C65.8107 37.3653 65.7032 38.8217 65.4838 40.2943C65.2964 41.7669 64.9159 42.8881 64.3423 43.6579C63.7051 44.5559 62.779 45.1668 61.5641 45.4906C60.3812 45.8463 58.9897 46.0267 57.3897 46.0317C56.7817 46.0336 55.9336 46.0042 54.8454 45.9436C54.3333 45.9132 53.5813 45.8995 52.5893 45.9026C51.5969 45.7777 50.6038 45.4288 49.61 44.8559C48.0702 43.6447 46.9288 41.9203 46.1858 39.6826C45.4428 37.4449 45.0672 35.0141 45.0591 32.3901C45.0505 29.6381 45.4266 27.1089 46.1874 24.8025C46.8229 23.3605 48.0034 22.2369 49.7288 21.4315C51.4543 20.6261 53.3731 20.2201 55.4851 20.2135C56.6371 20.2099 57.7575 20.3344 58.8463 20.587C61.3117 21.0593 63.1074 22.2217 64.2332 24.0742C65.3909 25.8946 65.9737 28.0848 65.9817 30.6447C65.983 31.0607 65.9533 31.7808 65.8925 32.805C65.285 32.9669 63.8935 33.1313 61.718 33.2981C59.5424 33.4329 57.5106 33.5032 55.6226 33.5091L53.0306 33.5172L53.0338 34.5252ZM57.7108 25.8706C57.2299 25.5841 56.7974 25.4414 56.4134 25.4426C55.2934 25.4461 54.4942 25.7046 54.0158 26.2181C53.5374 26.7316 53.2517 27.4525 53.1586 28.3808C53.127 28.5089 53.1114 28.6529 53.1119 28.8129C53.1125 29.0049 53.2089 29.1166 53.401 29.148C53.5931 29.1794 54.0731 29.1779 54.841 29.1435L56.953 29.1369L58.3931 29.1804L59.0171 29.1785C59.1132 29.2102 59.1772 29.21 59.2091 29.1779C59.241 29.1458 59.2568 29.0817 59.2565 28.9857L59.2559 28.7937C59.2538 28.1217 59.1239 27.5301 58.8663 27.0189C58.6407 26.5076 58.3196 26.1407 57.9029 25.918L57.7108 25.8706ZM87.0166 28.947C86.217 29.0775 85.3212 29.1443 84.3292 29.1474C82.8252 29.1521 81.1927 28.9812 79.4316 28.6347C79.4632 28.5066 79.4786 28.2986 79.4777 28.0106C79.4756 27.3386 79.2658 26.7792 78.8484 26.3325C78.431 25.8858 77.8224 25.6957 77.0226 25.7622C76.5431 25.9237 76.144 26.197 75.8252 26.582C75.5383 26.9349 75.3955 27.3353 75.3969 27.7833C75.3985 28.2953 75.544 28.7749 75.8334 29.222C76.1228 29.6691 76.5399 30.0038 77.0846 30.2261L77.0366 30.2262C79.4377 30.5707 81.375 30.9807 82.8484 31.4561C84.3219 31.9315 85.4442 32.664 86.2153 33.6536C87.0837 35.0589 87.5201 36.4655 87.5245 37.8735C87.5278 38.9295 87.2757 40.1783 86.7682 41.6199C86.037 43.1582 84.8406 44.2979 83.1789 45.0391C81.5492 45.7802 79.6623 46.1381 77.5182 46.1128C74.0306 46.2517 71.2284 45.5564 69.1116 44.027C67.0269 42.4975 65.98 40.3088 65.9711 37.4608C67.2506 37.2968 68.5624 37.2127 69.9063 37.2085L74.5146 37.2901C74.549 38.058 74.855 38.6971 75.4326 39.2073C76.0101 39.6855 76.6509 39.9235 77.3549 39.9213C77.8669 39.9197 78.3143 39.7263 78.6971 39.3411C79.0798 38.9239 79.2541 38.3793 79.22 37.7074C79.3134 36.8751 79.0556 36.2999 78.4466 35.9818C77.8375 35.6317 76.9245 35.3306 75.7077 35.0784L74.9873 34.9366C73.6744 34.6527 72.6815 34.3678 72.0086 34.0819C70.2465 33.4154 68.8675 32.4597 67.8716 31.2148C66.9076 29.9378 66.4235 28.6114 66.4192 27.2354C66.4146 25.7634 66.9063 24.3858 67.8943 23.1027C68.8823 21.8196 70.2235 20.9354 71.918 20.4502C73.069 20.1266 74.7485 19.9613 76.9565 19.9544C79.2925 19.9471 81.4052 20.1645 83.2946 20.6066C84.8326 21.2418 85.9558 22.2783 86.6643 23.7161C87.4047 25.1218 87.7779 26.7846 87.7839 28.7046L87.0166 28.947ZM108.626 28.8795C107.826 29.01 106.931 29.0768 105.939 29.0799C104.435 29.0846 102.802 28.9137 101.041 28.5672C101.072 28.4391 101.088 28.2311 101.087 27.9431C101.085 27.2711 100.875 26.7117 100.458 26.265C100.04 25.8183 99.4317 25.6282 98.6319 25.6947C98.1524 25.8562 97.7533 26.1295 97.4345 26.5145C97.1476 26.8674 97.0048 27.2678 97.0062 27.7158C97.0078 28.2278 97.1533 28.7074 97.4427 29.1545C97.7321 29.6016 98.1491 29.9363 98.6938 30.1586L98.6458 30.1587C101.047 30.5032 102.984 30.9132 104.458 31.3886C105.931 31.864 107.053 32.5965 107.825 33.5861C108.693 34.9914 109.129 36.398 109.134 37.806C109.137 38.862 108.885 40.1108 108.377 41.5524C107.646 43.0907 106.45 44.2304 104.788 44.9716C103.158 45.7127 101.272 46.0706 99.1275 46.0453C95.6399 46.1842 92.8377 45.4889 90.7209 43.9595C88.6361 42.43 87.5893 40.2413 87.5804 37.3933C88.8599 37.2293 90.1716 37.1452 91.5156 37.141L96.1239 37.2226C96.1583 37.9905 96.4643 38.6296 97.0419 39.1398C97.6194 39.618 98.2601 39.856 98.9641 39.8538C99.4761 39.8522 99.9235 39.6588 100.306 39.2736C100.689 38.8564 100.863 38.3118 100.829 37.6399C100.923 36.8076 100.665 36.2324 100.056 35.9143C99.4467 35.5642 98.5338 35.2631 97.317 35.0109L96.5965 34.8691C95.2837 34.5852 94.2908 34.3003 93.6179 34.0144C91.8558 33.3479 90.4768 32.3922 89.4809 31.1473C88.5169 29.8704 88.0327 28.5439 88.0285 27.1679C88.0239 25.6959 88.5156 24.3183 89.5036 23.0352C90.4915 21.7521 91.8328 20.868 93.5273 20.3827C94.6783 20.0591 96.3578 19.8938 98.5658 19.8869C100.902 19.8796 103.014 20.097 104.904 20.5391C106.442 21.1743 107.565 22.2108 108.274 23.6486C109.014 25.0543 109.387 26.7172 109.393 28.6371L108.626 28.8795Z" fill="white"/>
</svg>
