<svg width="146" height="103" viewBox="0 0 146 103" fill="none" xmlns="http://www.w3.org/2000/svg">
<path d="M33.7167 42.8134L33.4807 44.1853L32.6358 48.813C31.7806 53.4065 31.1577 56.8386 30.7671 59.1092C30.0346 63.3667 29.5551 66.5312 29.3286 68.6028C29.1329 68.7964 28.7774 68.8814 28.2619 68.8576C27.7726 68.8709 27.1022 68.8042 26.2507 68.6577C25.2731 68.4895 24.5977 68.3571 24.2247 68.2605C23.0057 67.9858 21.9487 67.9014 21.0538 68.0072C21.7954 65.0176 22.3886 62.2299 22.8335 59.6438C23.1591 57.7516 23.5843 54.9025 24.1092 51.0964C24.6884 46.9749 25.1571 43.8735 25.5152 41.792C26.0577 38.6384 26.7124 35.6826 27.4791 32.9246L35.26 34.4094L33.7167 42.8134Z" fill="white"/>
<path d="M21.6514 38.296L22.3545 39.5641L24.6865 43.8739C26.9877 48.1626 28.7201 51.3565 29.8838 53.4556C32.0656 57.3913 33.74 60.2743 34.9071 62.1046C34.8745 62.3895 34.6411 62.6904 34.207 63.0073C33.8181 63.3371 33.2302 63.7203 32.443 64.1566C31.5393 64.6576 30.9044 64.9905 30.5384 65.1553C29.3691 65.7273 28.4555 66.3481 27.7977 67.0177C26.4502 64.1058 25.1139 61.4546 23.7887 59.064C22.819 57.3148 21.3062 54.7233 19.2502 51.2896C17.0326 47.5643 15.3904 44.7396 14.3238 42.8154C12.7077 39.9001 11.3116 37.0724 10.1356 34.3323L17.4238 30.4635L21.6514 38.296Z" fill="white"/>
<path d="M47.862 47.0796L48.2522 48.4158L49.5246 52.9448C50.7726 57.4474 51.7195 60.8046 52.3652 63.0162C53.5761 67.1631 54.5344 70.2169 55.2402 72.1777C55.1494 72.4375 54.8673 72.6699 54.3937 72.8749C53.9599 73.1015 53.3283 73.336 52.4989 73.5781C51.5466 73.8562 50.8817 74.0336 50.5042 74.1105C49.2882 74.3989 48.3015 74.787 47.5439 75.2749C46.8979 72.2633 46.2071 69.498 45.4717 66.9792C44.9335 65.1362 44.0649 62.3895 42.8658 58.7393C41.5769 54.7819 40.6365 51.7896 40.0446 49.7622C39.1477 46.6905 38.4384 43.7473 37.9166 40.9328L45.5595 38.8512L47.862 47.0796Z" fill="white"/>
<rect x="17" y="48.8525" width="113.413" height="54" rx="10" transform="rotate(-7.1671 17 48.8525)" fill="#FFDD63"/>
<path d="M20.9905 61.2271C17.918 60.4038 12.8457 51.662 13.729 48.3652C14.6124 45.0685 25.7538 46.9086 28.8263 47.7319C31.8988 48.5552 31.5285 53.0531 30.6452 56.3499C29.7618 59.6466 24.0631 62.0504 20.9905 61.2271Z" fill="#FFDD63"/>
<path d="M145.5 48.4999C144.5 65 122.5 48 126.27 67.9999C118.661 67.9999 112 58.2889 112 50.0087C112 41.7285 107.5 38 122.5 35.5C130.5 34.5 144.5 33.5 145.5 48.4999Z" fill="#FFDD63"/>
<path d="M113.175 71.7907C113.549 57.7868 135.178 72.0934 131.229 52.128C142.5 49.0001 145.586 61.7107 145.66 69.9906C144 79 139.5 82 132 84C123.5 85.5001 116.745 85.7524 113.175 71.7907Z" fill="#FFDD63"/>
<path d="M141.815 51.7425C140.127 51.9683 138.464 52.0549 136.824 52.0021C134.865 51.9391 133.153 51.6638 131.688 51.1765C131.781 50.7792 131.83 50.5007 131.835 50.3408C131.865 49.4212 131.549 48.6507 130.889 48.0291C130.229 47.4076 129.479 47.0833 128.639 47.0563C128.04 47.037 127.493 47.2195 127.001 47.6038C126.549 47.9495 126.272 48.5008 126.167 49.2579C126.036 49.6138 125.965 49.9317 125.956 50.2116L125.999 50.7532C125.996 50.8332 125.995 50.8732 125.995 50.8732C126.248 51.7218 126.629 52.3143 127.138 52.6509C127.688 52.9887 128.34 53.2298 129.096 53.3742C131.086 53.7184 133.081 54.523 135.082 55.788C137.082 57.053 138.676 58.505 139.864 60.1441C140.59 61.208 141.153 62.3867 141.551 63.6802C141.951 64.9337 142.132 66.1602 142.093 67.3595C142.026 69.4385 141.501 71.4426 140.519 73.372C139.407 75.5774 137.752 77.265 135.553 78.4349C133.355 79.6048 130.976 80.1486 128.417 80.0662C125.819 79.9826 123.296 79.4011 120.849 78.3219C118.444 77.2039 116.513 75.661 115.055 73.6931C113.598 71.7252 112.99 69.4845 113.231 66.9709L113.248 66.4312C114.414 66.2686 115.696 66.2098 117.096 66.2549C118.295 66.2935 119.314 66.3463 120.152 66.4133C120.91 66.4777 122.269 66.5414 124.228 66.6045C124.23 67.8052 124.559 68.7562 125.217 69.4578C125.915 70.1606 126.723 70.5268 127.643 70.5564C128.442 70.5821 129.11 70.3435 129.647 69.8405C130.223 69.3387 130.527 68.6081 130.558 67.6486C130.569 67.2888 130.558 67.0083 130.525 66.8071C130.373 65.3215 129.706 64.2595 128.526 63.6212C127.346 62.9829 125.743 62.4311 123.717 61.9656L122.823 61.7568C121.115 61.3816 119.638 60.6337 118.393 59.5131C116.999 58.0675 115.968 56.5336 115.3 54.9112C114.631 53.2889 114.323 51.6782 114.375 50.079C114.458 47.4803 115.316 45.0667 116.949 42.838C118.623 40.5707 120.736 38.9578 123.288 37.9994C124.868 37.4099 126.817 37.1525 129.136 37.2271C132.134 37.3236 134.855 37.9715 137.297 39.1707C139.106 40.1894 140.524 41.4957 141.553 43.0896C142.583 44.6835 143.063 46.54 142.995 48.6589C142.969 49.4585 142.816 50.4941 142.535 51.7657L141.815 51.7425Z" fill="#8B89FF"/>
<path d="M20.7466 36.5802C22.0375 38.525 23.0708 40.1672 23.8463 41.5068C24.6539 42.8463 25.3175 44.2026 25.8373 45.5757L25.0693 45.58C24.6853 45.5822 23.8215 45.619 22.4778 45.6906C21.1342 45.7622 20.0624 45.8002 19.2624 45.8047C18.8144 45.8072 18.1423 45.779 17.2459 45.72L16.4297 45.6766C14.3231 40.9524 12.4471 37.4109 10.8018 35.0521L10.8088 36.3001C10.82 38.2841 10.9464 40.8434 11.188 43.9781L11.1878 43.9301C11.221 44.1539 11.2392 44.5378 11.2422 45.0818C10.1571 45.5999 8.36661 45.866 5.87065 45.88L4.71839 45.8385L2.17443 45.8528C1.82244 45.8548 1.63015 42.9598 1.59757 37.1679C1.56806 31.92 1.49054 26.6724 1.36502 21.425C1.23932 16.1456 1.07751 12.9785 0.87957 11.9236L2.17447 11.7243C4.093 11.4575 5.67589 11.2566 6.92315 11.1216C8.17041 10.9865 9.45003 10.9153 10.762 10.908C12.17 10.9 13.3703 10.9573 14.363 11.0797C16.2203 11.2933 17.9518 11.9235 19.5578 12.9705C21.1957 14.0173 22.4989 15.306 23.4676 16.8366C24.4682 18.367 24.9731 19.9482 24.9823 21.5801C24.9911 23.1481 24.4887 24.863 23.4752 26.7247C22.8417 27.8803 21.9991 28.845 20.9474 29.619C19.8958 30.3929 18.6344 30.864 17.1633 31.0323C18.0359 32.5634 19.0529 34.1577 20.2143 35.8152C20.4404 36.1979 20.6179 36.4529 20.7466 36.5802ZM13.7658 24.3793C14.2131 24.2488 14.5633 23.9268 14.8164 23.4133C15.0695 22.8999 15.1941 22.2912 15.1902 21.5872C15.1828 20.2752 14.858 19.4291 14.2159 19.0487C13.7984 18.795 13.3655 18.6374 12.9172 18.576C12.5008 18.5143 12.0207 18.485 11.4767 18.4881L9.41458 18.8357C9.48398 19.7953 9.52057 20.6111 9.52435 21.2831C9.53407 23.0111 9.58801 24.0668 9.68617 24.4502C10.2305 24.5112 10.9027 24.5394 11.7027 24.5349C12.4387 24.5307 13.1264 24.4789 13.7658 24.3793ZM46.8409 45.5056C45.8182 45.7353 44.7149 45.8535 43.5309 45.8602C42.1229 45.8681 40.5859 45.7008 38.92 45.3581C38.6926 44.7514 38.3334 43.4734 37.8424 41.5241C37.3512 39.5429 36.9599 38.233 36.6683 37.5947L35.708 37.5521L34.8923 37.6047C34.7665 37.9894 34.5638 38.9345 34.2842 40.4401C34.0673 41.6894 33.849 42.7146 33.6295 43.5158C33.4099 44.2851 33.0938 44.9909 32.6814 45.6332C32.3618 45.699 31.882 45.7337 31.242 45.7373C30.954 45.7389 30.3298 45.7104 29.3695 45.6518C26.5848 45.5395 25.0325 45.4842 24.7125 45.486C24.7116 45.326 24.7415 44.9579 24.8023 44.3815C24.8628 43.7732 24.9551 43.1006 25.0789 42.3639L26.1009 36.3101C26.905 31.3455 27.6647 27.0211 28.38 23.3371C29.1272 19.6528 30.0974 15.7593 31.2903 11.6565C31.7379 11.59 32.3457 11.5546 33.1137 11.5502L33.4017 11.5486C35.4817 11.5369 37.5132 11.4455 39.4963 11.2743C39.8887 12.7762 40.2491 14.2622 40.5774 15.7323C40.9055 17.1705 41.2008 18.4649 41.4632 19.6154C42.5122 24.0576 43.2169 27.0137 43.5771 28.4837L46.8409 45.5056ZM36.7297 31.4502C35.9897 25.0543 35.6357 21.8562 35.6677 21.856L35.617 21.3763C35.617 21.3763 35.5872 21.7605 35.5275 22.5288C35.445 24.9293 35.3117 26.8341 35.1277 28.2432L34.7138 31.4616L36.7297 31.4502ZM59.2778 41.2595C57.2369 36.855 55.8918 33.8065 55.2422 32.1141L55.2941 41.33C55.3052 43.3139 55.3289 44.6738 55.365 45.4096C54.5025 45.6705 53.5592 45.8038 52.5352 45.8095C52.2152 45.8113 51.7351 45.782 51.0947 45.7216C50.3904 45.6616 49.8782 45.6325 49.5582 45.6343L47.2057 45.5515L47.1855 41.9516C47.1739 39.9036 47.1256 36.9918 47.0403 33.2163C46.9977 31.3285 46.9656 28.4646 46.944 24.6247C46.915 19.4727 47.0347 15.152 47.3031 11.6624C48.1658 11.4336 49.1252 11.3162 50.1811 11.3102C50.8851 11.3063 51.7335 11.3655 52.7262 11.4879C53.7509 11.6102 54.456 11.7982 54.8414 12.052C55.2941 12.8815 55.8446 14.0464 56.4931 15.5468C57.1733 17.015 57.8216 18.4834 58.4379 19.9519L60.3827 24.3571C60.3061 22.1175 60.2592 19.4777 60.2421 16.4377C60.2283 13.9738 60.2347 12.2777 60.2615 11.3495C61.5721 11.0862 62.9633 10.9503 64.4353 10.9421C65.6833 10.935 66.9801 11.0717 68.3257 11.3522L68.5171 45.3836C68.4211 45.3842 68.2294 45.4333 67.9419 45.5309C67.6226 45.6607 67.063 45.7278 66.263 45.7323C66.1032 45.7652 65.2549 45.722 63.7182 45.6026C63.3341 45.5728 62.8379 45.5436 62.2297 45.515C61.6536 45.4862 61.3176 45.4881 61.2217 45.5207L59.2778 41.2595ZM89.0868 15.3635C90.6041 17.723 91.6095 20.1014 92.103 22.4986L92.1027 22.4506C92.3632 23.2492 92.5291 24.2882 92.6003 25.5679C92.5417 26.5282 92.5137 27.2484 92.5164 27.7284L92.4727 28.4966C92.474 28.7206 92.4462 29.4728 92.3894 30.7531C92.3326 32.0335 92.1797 33.2984 91.9308 34.5478C91.3329 36.3432 90.4948 38.1079 89.4165 39.842C88.3701 41.5439 87.116 43.311 85.6543 45.1432C82.9667 45.2224 80.7589 45.2668 79.0309 45.2765L75.5752 45.3439L71.8316 45.413C71.232 41.2243 70.9143 35.946 70.8785 29.5781C70.8628 26.7942 70.8671 24.7141 70.8914 23.3379C70.9164 22.0898 70.9203 19.9457 70.9032 16.9058C70.8989 16.1378 70.8604 14.986 70.7878 13.4504L70.7317 12.0107L71.0674 11.9608C72.7608 11.5032 74.7275 11.2682 76.9675 11.2556L78.2158 11.2965L79.5117 11.2893C79.9279 11.3189 80.568 11.3313 81.432 11.3265C82.296 11.3216 82.9359 11.302 83.3517 11.2677C84.5375 11.581 85.6767 12.1506 86.7693 12.9765C87.8618 13.7703 88.731 14.6935 89.377 15.7458L89.0868 15.3635ZM84.7937 28.6838C84.7904 28.1078 84.7233 27.5482 84.5922 27.0049C84.3287 25.6624 84.0186 24.5761 83.6619 23.7461C83.305 22.8841 82.7579 22.3272 82.0205 22.0753L82.1165 22.0748C81.3481 22.0151 80.7719 21.9863 80.3879 21.9885C79.7479 21.9921 79.3321 22.0264 79.1405 22.0915C79.211 23.2431 79.2491 24.3309 79.2549 25.3549L79.2619 26.6029L79.2212 27.8992C79.1933 28.6353 79.1835 29.7394 79.1918 31.2114C79.1997 32.6194 79.1897 33.6914 79.1619 34.4276C79.643 34.6169 79.9795 34.711 80.1715 34.7099L80.7955 34.7064C81.3075 34.7035 81.6752 34.6535 81.8987 34.5562C82.4099 34.4253 82.9827 33.8461 83.6169 32.8185C84.4101 31.598 84.8023 30.2198 84.7937 28.6838Z" fill="white"/>
<path d="M1.07022 11.6825C3.37238 11.3495 5.195 11.0993 6.53808 10.9317C7.91316 10.764 9.32069 10.6761 10.7607 10.668C13.3526 10.6534 15.5783 10.9449 17.4377 11.5424C19.3291 12.1398 20.9189 13.1709 22.2072 14.6356C24.5271 17.4706 25.694 20.1041 25.7077 22.5361C25.7154 23.9121 25.4193 25.3217 24.8194 26.7651C24.2194 28.1765 23.3462 29.3975 22.2 30.4279C21.0538 31.4584 19.6971 32.058 18.13 32.2268C18.7118 33.2476 19.7286 34.8099 21.1805 36.9138C22.4709 38.7625 23.5199 40.3727 24.3277 41.7441C25.1354 43.1156 25.8317 44.5837 26.4165 46.1485L26.708 46.7708L26.036 46.7746C25.524 46.7775 24.6602 46.8143 23.4446 46.8852C22.037 46.9571 20.9652 46.9951 20.2292 46.9993C19.5572 47.0031 18.709 46.9758 17.6847 46.9176C17.6201 46.8219 17.5553 46.6783 17.4902 46.4867C17.4253 46.327 17.3286 46.1996 17.2001 46.1043C17.1035 46.0088 16.9433 45.9617 16.7193 45.963C15.0332 42.0364 13.3025 38.7181 11.5272 36.008L11.5342 37.256C11.5393 38.152 11.6299 40.0395 11.8061 42.9186C11.9096 44.262 11.9639 45.3817 11.969 46.2777C11.2988 46.6015 10.548 46.8137 9.71653 46.9144C8.91708 47.0149 7.95736 47.0683 6.83738 47.0746L4.72514 47.0385L1.94119 47.0541C1.90559 46.4143 1.88572 45.7264 1.88158 44.9904L1.80901 40.6228L1.78714 36.7348C1.75906 31.7429 1.66626 26.6234 1.50875 21.3762C1.38323 16.1288 1.23705 12.8976 1.07022 11.6825ZM16.6342 30.8432C18.2655 30.7061 19.6545 30.1702 20.8013 29.2358C21.9478 28.2693 22.8053 27.0965 23.3735 25.7173C23.9418 24.338 24.222 22.9604 24.2143 21.5845C24.2047 19.8885 23.7636 18.2589 22.8908 16.6958C22.05 15.1325 20.8588 13.8592 19.3172 12.8759C17.8077 11.8923 16.1247 11.3738 14.2684 11.3202C13.2117 11.1982 12.0273 11.1408 10.7154 11.1482C9.27539 11.1563 7.91586 11.244 6.63678 11.4112C5.38952 11.5462 3.72671 11.7635 1.64837 12.0632C1.81358 12.9903 1.9576 15.8376 2.08042 20.6049C2.20324 25.3723 2.27985 30.46 2.31027 35.8679L2.33808 40.8118C2.34672 42.3478 2.33675 43.4199 2.30817 44.028L2.31654 45.516C2.41272 45.5475 2.52481 45.5628 2.65281 45.5621C3.0688 45.5598 3.40488 45.5739 3.66106 45.6044L5.5813 45.6416C6.76528 45.635 7.75709 45.5974 8.55671 45.5289C9.35616 45.4284 10.0113 45.2647 10.522 45.0378C10.2482 41.8713 10.1039 38.9761 10.0891 36.3521C10.0823 35.1362 10.1246 34.1279 10.2161 33.3274L10.3129 33.4708C11.5372 34.936 12.7477 36.8012 13.9444 39.0665C15.141 41.2998 16.1771 43.438 17.0526 45.4811L17.1006 45.4808C18.1889 45.5387 19.0211 45.566 19.5971 45.5628C20.3011 45.5588 21.2929 45.5213 22.5725 45.4501C23.7241 45.3796 24.5399 45.343 25.0199 45.3403C24.4353 43.8076 23.7069 42.3236 22.8348 40.8885C21.9626 39.4214 20.8973 37.7794 19.6391 35.9624C19.3162 35.4522 18.7999 34.6871 18.0901 33.6671C17.4122 32.6149 16.847 31.6901 16.3945 30.8926L16.6342 30.8432ZM12.0977 17.9566C13.1857 17.9504 14.0835 18.2814 14.7913 18.9494C15.4989 19.5854 15.8558 20.4635 15.8621 21.5834C15.8686 22.7354 15.5372 23.5533 14.8679 24.0371C14.2306 24.5207 13.176 24.7666 11.704 24.7749C10.712 24.7805 9.81579 24.7375 9.01526 24.646L8.96726 24.6463C8.8682 24.1028 8.8139 22.9831 8.80436 21.2871L8.69405 18.7437C9.84316 18.2252 10.9777 17.9629 12.0977 17.9566ZM13.0658 19.3911C12.1698 19.3962 11.195 19.6097 10.1413 20.0316C10.21 20.8632 10.2461 21.599 10.2497 22.239L10.2096 23.6313L10.2613 24.303L11.7013 24.2949C12.4373 24.2907 13.141 24.2388 13.8125 24.139L13.7645 24.1393C14.3078 24.0082 14.7221 23.7179 15.0076 23.2683C15.2929 22.7867 15.4337 22.2259 15.4301 21.5859C15.4219 20.1139 14.6337 19.3823 13.0658 19.3911ZM47.6157 46.7012C46.337 46.9324 45.3136 47.0502 44.5456 47.0545C43.0736 47.0628 41.6328 46.9109 40.223 46.5988C40.0928 46.2155 39.9795 45.9762 39.8829 45.8807C39.7864 45.7853 39.674 45.7219 39.5459 45.6906C39.4179 45.6913 39.3218 45.6759 39.2576 45.6442C38.9971 44.8457 38.6378 43.5517 38.1797 41.7622C37.9178 40.7077 37.6895 39.941 37.4948 39.462C37.3321 38.9829 37.1548 38.7439 36.9628 38.745C36.7068 38.7465 36.4829 38.7637 36.291 38.7968C36.131 38.7977 35.907 38.799 35.619 38.8006C35.3985 39.4098 35.18 40.3871 34.9635 41.7323C34.7145 42.9817 34.4961 43.975 34.3083 44.712C34.1204 45.4491 33.8524 46.1546 33.5042 46.8286C33.4082 46.8291 33.2643 46.846 33.0724 46.879C32.9126 46.9119 32.7047 46.9291 32.4487 46.9305C32.0966 46.9005 31.3605 46.8887 30.2405 46.895L28.1763 46.8586L25.632 46.8249L25.7706 45.8641L24.6666 45.8703L25.3186 42.3146C26.1855 37.1256 27.1328 32.0162 28.1605 26.9863C29.188 21.9245 30.4868 16.7331 32.0569 11.4122C32.6326 11.3449 32.9684 11.3111 33.0644 11.3105C33.1924 11.3098 33.6085 11.3235 34.3126 11.3515C35.0168 11.3795 36.4882 11.2753 38.7269 11.0387C38.858 11.5819 38.94 11.9335 38.9729 12.0933L39.6923 11.9932C39.9895 13.6236 41.0223 18.0339 42.7908 25.224C43.4455 27.8444 43.7894 29.2345 43.8223 29.3943L47.6157 46.7012ZM38.3459 11.5688C36.9387 11.7047 35.547 11.7766 34.1711 11.7843L33.1631 11.79C32.7791 11.7921 32.5392 11.8095 32.4434 11.842C30.9364 17.0026 29.6846 22.0177 28.6879 26.8874C27.7233 31.7569 26.7605 36.9464 25.7995 42.4559C25.7069 43.0644 25.6141 43.6409 25.5212 44.1855C25.4281 44.698 25.3503 45.0984 25.2879 45.3868L25.3842 45.4343L26.5362 45.4278L30.3284 45.4544C30.6486 45.4846 31.0326 45.4985 31.4806 45.496C31.8326 45.494 32.0405 45.4768 32.1044 45.4445L32.2481 45.3956C32.5334 44.914 32.7541 44.3368 32.9104 43.6639C33.0666 42.991 33.2375 42.094 33.4232 40.973C33.7331 39.1792 34.0304 37.9775 34.315 37.3679C34.667 37.3659 34.955 37.3643 35.179 37.363C35.4028 37.3298 35.5787 37.3128 35.7067 37.3121L36.3307 37.3086L37.2912 37.3992C37.5504 37.9737 37.8109 38.7723 38.0727 39.7948C38.3664 40.8172 38.546 41.4562 38.6115 41.7118C38.9399 43.214 39.2665 44.3802 39.5912 45.2103L39.6392 45.2101C40.8888 45.491 42.2016 45.6277 43.5775 45.6199C44.3775 45.6154 45.2091 45.5307 46.0721 45.3659L46.0719 45.3179L42.3774 28.5384L38.3459 11.5688ZM33.9471 31.7059C34.3151 28.8558 34.4838 27.5588 34.4532 27.815C34.6972 25.6696 34.8964 24.1164 35.051 23.1555C35.2375 22.1625 35.4267 21.6654 35.6187 21.6643C35.8427 21.6631 36.0869 22.4137 36.3513 23.9162C36.6478 25.4186 37.0304 28.0085 37.4991 31.6859L35.0994 31.7474L33.9471 31.7059ZM36.2656 25.7407L35.5284 31.217L36.9204 31.2091L36.2656 25.7407ZM62.0871 45.7558L61.5591 45.7588L59.4212 41.1627C58.7415 39.7905 58.0777 38.4183 57.43 37.0459C56.8141 35.6413 56.3112 34.4121 55.9213 33.3583L55.951 38.6382C55.9729 42.5422 56.0199 45.2139 56.092 46.6536C55.4213 46.8813 54.558 46.9982 53.502 47.0041C52.926 47.0074 52.4139 46.9942 51.9657 46.9648C51.5496 46.9351 51.1974 46.9051 50.9092 46.8747C50.1087 46.7832 49.2764 46.7399 48.4124 46.7447L48.407 45.7848L47.447 45.7902L47.4254 41.9502C47.4141 39.9343 47.3656 37.0065 47.28 33.1669L47.184 24.6233C47.1557 19.5994 47.2909 15.1826 47.5895 11.3728C48.3564 11.1765 49.2198 11.0756 50.1798 11.0702C50.8518 11.0665 51.7483 11.1574 52.8694 11.3431C53.9903 11.4968 54.5834 11.7015 54.6489 11.9571C54.7468 12.3086 54.9242 12.5476 55.1809 12.6741C55.4374 12.7687 55.5819 12.8479 55.6142 12.9117C56.1658 14.2526 56.7979 15.6891 57.5105 17.2211C58.2231 18.7531 59.2594 20.9233 60.6192 23.7317L60.6135 22.7237C60.6087 21.8598 60.5701 20.692 60.4978 19.2203L60.4304 15.7647C60.396 15.3488 60.4083 14.6928 60.4673 13.7964L60.5058 12.1162L60.4999 11.0602C61.6186 10.8299 62.93 10.7105 64.434 10.7021C65.5859 10.6956 66.8026 10.8167 68.0841 11.0655L68.0886 11.8815L69.0494 12.0201L69.1385 27.8599L69.2327 36.0675L69.2001 38.8037L69.2255 43.3156L69.2843 45.2353L69.2438 46.5796C69.148 46.6121 68.9244 46.6774 68.5729 46.7753C68.2215 46.8733 67.7737 46.9238 67.2298 46.9269C66.4618 46.9312 65.6455 46.8878 64.781 46.7967C63.7566 46.7384 63.0045 46.7107 62.5245 46.7134L62.0871 45.7558ZM67.8389 44.2834L67.7693 40.4438L67.7873 35.1156L67.7641 30.9876C67.7538 29.1637 67.7302 27.8038 67.6932 26.908L67.6062 11.4522C66.7092 11.2653 65.6526 11.1752 64.4367 11.1821C63.2527 11.1887 62.1012 11.2912 60.9823 11.4895C60.9302 13.6018 60.9062 15.026 60.9104 15.762L60.977 19.0736C61.0496 20.6093 61.0885 21.8251 61.0935 22.721C61.0967 23.297 61.068 23.8732 61.0072 24.4496C60.9463 24.9939 60.868 25.2983 60.7724 25.3629C60.7084 25.3632 60.1424 24.3104 59.0746 22.2044C58.0065 20.0664 57.2134 18.4548 56.6953 17.3697C56.4359 16.7631 56.1768 16.2046 55.9179 15.694C55.659 15.1835 55.4649 14.8006 55.3354 14.5453L54.8012 13.4443L54.1691 12.0078C54.1684 11.8798 53.6558 11.7707 52.6313 11.6805C51.6067 11.5902 50.7905 11.5468 50.1825 11.5502C49.2865 11.5553 48.5669 11.6233 48.0236 11.7544C47.7552 15.2439 47.6354 19.5327 47.664 24.6206L47.7603 33.2122C47.8455 36.9878 47.8939 39.8996 47.9054 41.9475L47.9243 45.3075C48.6603 45.3033 49.4126 45.3471 50.1811 45.4388C50.4373 45.4693 50.7575 45.4995 51.1416 45.5294C51.5258 45.5592 51.9899 45.5726 52.5339 45.5695C53.3339 45.565 54.0374 45.4811 54.6445 45.3177C54.6105 44.9659 54.5911 44.358 54.5862 43.494L54.5741 41.334C54.5579 38.454 54.5744 35.7019 54.6237 33.0776C54.6729 30.4533 54.7455 29.1408 54.8415 29.1403C54.9375 29.1398 55.1482 29.6186 55.4736 30.5768L55.9617 32.0141C56.5792 33.7066 57.8436 36.6115 59.7548 40.7289L61.8444 45.2772C62.5484 45.2732 63.2846 45.3171 64.0532 45.4088C65.0775 45.467 65.8137 45.4948 66.2617 45.4923C66.8377 45.4891 67.3652 45.4061 67.8443 45.2434L67.8389 44.2834ZM89.8597 16.2231C91.2473 18.2954 92.2528 20.6897 92.8761 23.4063L92.8278 23.3586C93.0882 24.1251 93.2542 25.1962 93.3259 26.5718L93.1973 29.3086C93.1486 32.0289 92.9842 34.0938 92.7042 35.5034C92.0431 37.4592 91.1735 39.3041 90.0952 41.0382C89.049 42.7721 87.8109 44.5391 86.381 46.3392C83.3096 46.4525 80.0299 46.5189 76.542 46.5385C75.7102 46.5752 74.5423 46.5978 73.0383 46.6062L72.8886 45.5991L72.0729 45.6516C71.4733 41.463 71.1552 36.1047 71.1185 29.5768C71.1032 26.8568 71.1077 24.8087 71.1319 23.4326L71.1432 16.9044C71.1315 14.8245 71.1068 13.2726 71.069 12.2488C71.0686 12.1848 71.0844 12.1367 71.1162 12.1045C71.1793 11.9441 71.2904 11.7835 71.4495 11.6226C72.2802 11.3939 73.1114 11.2453 73.943 11.1766C74.8065 11.0757 75.8142 11.0221 76.9662 11.0156C77.9581 11.01 78.7102 11.0218 79.2224 11.0509L81.4306 11.0865C82.2626 11.0818 82.8865 11.0623 83.3023 11.0279C84.5845 11.4047 85.8524 12.1016 87.1062 13.1186C88.3597 14.1035 89.2935 15.1383 89.9077 16.2229L89.8597 16.2231ZM81.8653 11.564C80.8413 11.5698 80.0573 11.5582 79.5131 11.5293L77.1129 11.4948C74.9049 11.5072 73.0979 11.6933 71.6919 12.0533L71.549 12.2461C71.5868 13.2699 71.6114 14.8058 71.6229 16.8537L71.6116 23.3819C71.5876 24.79 71.5835 26.9181 71.5995 29.7661C71.6175 32.966 71.6814 35.7817 71.7911 38.2131C71.9327 40.6444 72.1698 42.9631 72.5022 45.1692L72.5499 45.121C78.1498 45.0895 82.3575 45.0178 85.1729 44.9059C86.6346 43.0737 87.857 41.3548 88.84 39.7492C89.855 38.1435 90.6455 36.459 91.2116 34.6958L91.259 34.5996C91.5695 32.9018 91.7486 30.6127 91.7964 27.7324L91.8803 25.5719C91.7746 23.8445 91.4288 22.1024 90.8429 20.3457C90.257 18.5889 89.4799 16.9773 88.5116 15.5107C87.9302 14.554 87.1575 13.7103 86.1934 12.9797C85.2612 12.2489 84.2825 11.7584 83.257 11.5082L81.8653 11.564ZM81.852 34.7965C81.3086 34.8955 80.7488 34.9467 80.1728 34.9499C79.4369 34.9541 78.908 34.813 78.5864 34.5268C78.5142 33.0552 78.4758 31.9194 78.4713 31.1194L78.5012 27.9032C78.5294 27.231 78.54 26.271 78.533 25.023C78.5288 24.287 78.4913 23.3112 78.4205 22.0956L78.4194 21.9036L78.5634 21.9028C79.1389 21.8035 79.7466 21.7521 80.3866 21.7485C82.3066 21.7377 83.6385 22.4342 84.3824 23.8381C85.1261 25.2099 85.5032 26.8238 85.5137 28.6798C85.5218 30.1198 85.0818 31.5463 84.1937 32.9593C83.8764 33.4411 83.5108 33.8751 83.097 34.2615C82.683 34.6158 82.3 34.7939 81.948 34.7959L81.852 34.7965ZM83.8084 32.7214C84.6333 31.4688 85.0418 30.1225 85.0337 28.6825C85.0297 27.9785 84.8969 27.1312 84.6354 26.1407C84.3736 25.1181 84.0167 24.2401 83.5645 23.5067L83.0832 23.2694C82.3148 23.2097 81.7387 23.1809 81.3547 23.1831C81.0667 23.1847 80.5709 23.2195 79.8672 23.2874C79.9381 24.5031 79.9757 25.5109 79.9802 26.3109L79.953 30.0071C79.8984 31.6714 79.8733 32.9036 79.8778 33.7036L79.9301 34.4713L80.1701 34.4699C80.5221 34.4679 80.858 34.4501 81.1779 34.4163C81.4975 34.3505 81.7373 34.3171 81.8973 34.3162L81.9936 34.3637C82.0896 34.3631 82.265 34.2661 82.5199 34.0727L82.4719 34.073C82.9503 33.7823 83.3957 33.3158 83.8081 32.6734L83.8084 32.7214Z" fill="#404040"/>
<path d="M142.906 53.2784C141.138 53.5016 139.495 53.5888 137.975 53.5399C136.096 53.4795 134.464 53.2268 133.077 52.782C133.121 52.6633 133.151 52.3641 133.166 51.8844C132.609 51.7864 132.193 51.6729 131.917 51.544C131.96 51.4254 131.989 51.1661 132.002 50.7663C132.029 49.9268 131.847 49.3606 131.456 49.0679C131.065 48.7752 130.51 48.6172 129.79 48.5941C128.991 48.5683 128.303 48.7864 127.728 49.2481C127.153 49.7098 126.851 50.4005 126.821 51.32C126.801 51.9597 126.927 52.3839 127.2 52.5928C127.475 52.7618 127.812 52.8727 128.21 52.9255C128.609 52.9783 128.887 53.0273 129.046 53.0725C131.513 53.512 133.821 54.5468 135.97 56.1768C138.16 57.768 139.879 59.6843 141.127 61.9257C142.417 64.1283 143.026 66.349 142.954 68.5879C142.868 71.2665 142.192 73.606 140.927 75.6063C139.662 77.6066 138.013 79.1144 135.979 80.1295C133.984 81.1859 131.827 81.6767 129.508 81.6021C126.87 81.5172 124.29 80.8339 121.77 79.5521C119.249 78.3104 117.202 76.6437 115.628 74.552C114.096 72.4216 113.369 70.137 113.447 67.6983L113.532 66.9206L113.559 66.081C114.644 65.9559 115.806 65.9132 117.045 65.9531L120.522 66.125C121.32 66.1907 122.459 66.2474 123.938 66.295C123.924 66.7348 123.971 67.1365 124.079 67.5002L125.099 67.533C125.067 68.5325 125.264 69.2392 125.691 69.6531C126.119 70.0271 126.773 70.2282 127.652 70.2565C128.532 70.2848 129.279 70.0688 129.894 69.6083C130.51 69.1479 130.831 68.4779 130.86 67.5983C130.899 66.359 130.467 65.4846 129.563 64.9753C128.659 64.4659 127.73 64.1158 126.776 63.925C125.823 63.6943 125.207 63.5544 124.928 63.5054L124.034 63.2965C122.843 63.0181 121.856 62.6061 121.073 62.0606C120.291 61.4752 119.455 60.7079 118.565 59.7588C115.853 56.9901 114.556 53.7667 114.674 50.0886C114.754 47.6099 115.447 45.351 116.753 43.312C118.06 41.273 119.792 39.6879 121.949 38.5567C124.148 37.3868 126.547 36.8437 129.145 36.9273C131.824 37.0135 134.287 37.593 136.533 38.6658C138.82 39.7399 140.633 41.239 141.971 43.1631C143.31 45.0872 143.938 47.3285 143.856 49.8872C143.824 50.8867 143.667 52.0222 143.386 53.2938L142.906 53.2784ZM141.705 51.4388C141.941 50.3258 142.071 49.3895 142.096 48.6299C142.21 45.0718 141.016 42.372 138.514 40.5305C136.053 38.6504 132.924 37.6492 129.126 37.527C126.607 37.4459 124.31 37.9523 122.234 39.0461C120.157 40.1398 118.487 41.6669 117.224 43.6273C116 45.5889 115.35 47.7492 115.274 50.1079C115.229 51.5072 115.48 53.0361 116.027 54.6945C116.575 56.313 117.449 57.7619 118.649 59.0411C119.848 60.3203 121.303 61.1276 123.013 61.4627C123.37 61.5543 124.403 61.8076 126.11 62.2228C127.819 62.5979 129.139 63.2407 130.07 64.1511C131.041 65.0628 131.504 66.2183 131.459 67.6176C131.423 68.737 131.036 69.565 130.299 70.1016C129.561 70.6381 128.673 70.8897 127.633 70.8562C126.474 70.8189 125.465 70.4663 124.606 69.7983C123.788 69.0916 123.359 68.1173 123.319 66.8754C122.08 66.8355 121.141 66.7853 120.502 66.7247L117.266 66.5605C116.147 66.5245 115.105 66.551 114.142 66.6401L114.109 67.6595C114.033 70.0183 114.686 72.1004 116.069 73.9058C117.452 75.7112 119.247 77.1297 121.455 78.1613C123.704 79.1541 126.028 79.6892 128.427 79.7664C130.626 79.8371 132.68 79.423 134.59 78.524C136.501 77.585 138.047 76.174 139.229 74.291C140.451 72.3693 141.105 70.0692 141.192 67.3906C141.262 65.1917 140.749 63.1141 139.651 61.1578C138.555 59.1615 137.048 57.4921 135.13 56.1498C133.252 54.8087 131.198 53.9821 128.967 53.6702C126.297 53.3042 124.996 52.0817 125.063 50.0027C125.097 48.9233 125.464 48.1147 126.161 47.5768C126.86 46.999 127.689 46.7255 128.649 46.7564C129.768 46.7924 130.737 47.1438 131.556 47.8105C132.375 48.4772 132.768 49.3303 132.735 50.3697C132.723 50.7295 132.695 50.9688 132.652 51.0874C133.959 51.4897 135.333 51.714 136.772 51.7603C138.011 51.8002 139.636 51.6924 141.645 51.4369L141.705 51.4388Z" fill="#404040"/>
<path d="M33.9525 62.6494C33.8967 62.7811 33.8803 63.7922 33.9033 65.6825C33.9263 67.5728 33.9992 69.492 34.122 71.4401C34.2468 73.4202 34.3995 75.0779 34.5798 76.4132C34.73 77.2694 35.0389 78.0996 35.5064 78.9038C35.9719 79.676 36.5012 80.1877 37.0941 80.4389C38.2159 80.4323 39.03 79.868 39.5364 78.7459L39.4885 78.7489C39.7377 78.124 39.824 77.2047 39.7475 75.9912C39.6871 75.0331 39.7037 74.2785 39.7972 73.7275C40.6036 73.8049 41.3742 73.8205 42.1087 73.7742L44.3093 73.5873C45.459 73.5148 46.5529 73.5741 47.591 73.7652C48.0447 74.8588 48.3098 76.0124 48.3863 77.226C48.5011 79.0464 48.1468 80.8002 47.3233 82.4873C46.5318 84.1725 45.3698 85.5764 43.8374 86.699C42.305 87.8217 40.5668 88.4763 38.6227 88.663C38.0539 88.7951 37.3862 88.8853 36.6197 88.9336C34.1287 89.0907 31.9058 88.6697 29.9511 87.6707C27.9963 86.6718 26.8367 85.0616 26.4722 82.8401C26.1111 79.6565 25.8148 76.2283 25.5833 72.5556C25.392 69.5217 25.2509 67.0296 25.16 65.0795L25.072 62.9207C25.0098 62.4437 25.0075 61.8987 25.0651 61.2859C25.1526 60.6391 25.277 60.0702 25.4384 59.579C25.6795 58.8264 26.0005 58.0687 26.4013 57.3059C26.834 56.5412 27.2908 55.9032 27.7716 55.3919C28.408 54.8067 29.3688 54.2812 30.6541 53.8154C31.8754 53.3536 33.1568 53.0805 34.4981 52.9959C36.6698 52.859 38.746 53.2411 40.7266 54.1422C42.7052 55.0115 44.3248 56.2881 45.5852 57.9721C46.8437 59.6242 47.5373 61.4722 47.6662 63.5161C47.7427 64.7297 47.5957 65.9574 47.2251 67.1992C45.9019 67.5712 44.7932 67.7854 43.8989 67.8418C42.6854 67.9183 40.9956 67.8164 38.8297 67.5362L38.5712 65.7248C38.4147 64.2598 38.1536 63.17 37.7879 62.4556C37.4521 61.7073 36.7903 61.3803 35.8022 61.4746C35.7703 61.4767 35.7234 61.4956 35.6615 61.5316C35.6296 61.5336 35.5657 61.5376 35.4699 61.5437L35.5178 61.5407C34.5379 61.7628 34.0161 62.1323 33.9525 62.6494ZM70.5584 86.0242C69.5505 86.3122 68.4558 86.4935 67.2741 86.568C65.8689 86.6566 64.3249 86.5776 62.642 86.331C62.3802 85.7383 61.9484 84.483 61.3465 82.5651C60.7426 80.6152 60.2768 79.33 59.9491 78.7093L58.988 78.7218L58.1766 78.8211C58.073 79.2124 57.9248 80.1676 57.7321 81.6868C57.587 82.9464 57.4279 83.9824 57.2547 84.7949C57.0795 85.5755 56.8044 86.2983 56.4295 86.9632C56.1142 87.0472 55.6371 87.1093 54.9984 87.1496C54.711 87.1677 54.0862 87.175 53.1241 87.1716C50.3375 87.219 48.7846 87.2528 48.4652 87.2729C48.4551 87.1133 48.4639 86.744 48.4915 86.1651C48.5172 85.5543 48.5707 84.8776 48.6521 84.135L49.3255 78.0325C49.8437 73.03 50.3543 68.6692 50.8573 64.9502C51.3922 61.2291 52.1376 57.2864 53.0934 53.122C53.5365 53.03 54.1413 52.9598 54.9078 52.9114L55.1952 52.8933C57.2711 52.7624 59.294 52.5547 61.264 52.2702C61.7419 53.7471 62.1868 55.21 62.5988 56.6589C63.0088 58.0759 63.3778 59.3512 63.7058 60.4848C65.0076 64.8596 65.8805 67.7704 66.3244 69.2174L70.5584 86.0242ZM59.6583 72.5715C58.553 66.2285 58.0163 63.0559 58.0482 63.0539L57.9701 62.5779C57.9701 62.5779 57.9623 62.9632 57.9468 63.7337C58.002 66.1349 57.9781 68.0442 57.8751 69.4615L57.6463 72.6983L59.6583 72.5715ZM89.5612 75.7361C90.9615 77.6037 92.0872 79.184 92.9382 80.477C93.8212 81.768 94.5615 83.084 95.159 84.4251L94.3926 84.4734C94.0093 84.4976 93.149 84.5839 91.8117 84.7323C90.4744 84.8807 89.4066 84.9801 88.6082 85.0305C88.161 85.0587 87.4884 85.069 86.5901 85.0615L85.7727 85.065C83.3988 80.4692 81.323 77.0411 79.5452 74.7805L79.6237 76.026C79.7486 78.0061 80.0214 80.5539 80.4423 83.6696L80.4393 83.6217C80.4854 83.8433 80.5255 84.2255 80.5597 84.7684C79.5061 85.3479 77.7337 85.7161 75.2427 85.8732L74.09 85.8978L71.551 86.0578C71.1997 86.08 70.8418 83.2008 70.4773 77.4203C70.1471 72.1827 69.769 66.9481 69.3429 61.7166C68.9149 56.4531 68.5718 53.3004 68.3137 52.2586L69.5951 51.9854C71.4952 51.6091 73.064 51.3178 74.3014 51.1115C75.5389 50.9052 76.8123 50.7608 78.1217 50.6783C79.5269 50.5897 80.7286 50.578 81.7267 50.6434C83.5931 50.7501 85.358 51.2801 87.0212 52.2333C88.7164 53.1846 90.0914 54.3964 91.1462 55.869C92.2329 57.3395 92.8276 58.8892 92.9303 60.5179C93.0289 62.0828 92.6257 63.8236 91.7205 65.7404C91.1542 66.9304 90.3683 67.9419 89.3628 68.7748C88.3572 69.6077 87.1249 70.1503 85.6659 70.4026C86.6248 71.8812 87.7315 73.4146 88.9859 75.0028C89.2336 75.372 89.4254 75.6164 89.5612 75.7361ZM81.8927 63.9553C82.3317 63.7994 82.6629 63.4578 82.8862 62.9307C83.1095 62.4036 83.1989 61.7888 83.1546 61.0862C83.0721 59.7768 82.6994 58.9506 82.0365 58.6076C81.6052 58.3783 81.164 58.2458 80.7128 58.2101C80.2936 58.1725 79.8126 58.1707 79.2696 58.205L77.2309 58.6702C77.3552 59.6242 77.4384 60.4366 77.4807 61.1073C77.5895 62.8318 77.7038 63.8827 77.8238 64.2599C78.3707 64.2896 79.0434 64.2792 79.8418 64.2289C80.5764 64.1826 81.26 64.0914 81.8927 63.9553ZM111.943 53.4515C113.593 55.7202 114.733 58.0371 115.363 60.4021L115.36 60.3542C115.666 61.1365 115.891 62.1644 116.036 63.4378C116.032 64.3999 116.045 65.1205 116.076 65.5996L116.076 66.3691C116.09 66.5926 116.106 67.3451 116.122 68.6266C116.139 69.9081 116.059 71.1797 115.882 72.4413C115.388 74.268 114.652 76.0779 113.675 77.8709C112.728 79.63 111.577 81.4661 110.223 83.3791C107.544 83.6121 105.343 83.783 103.618 83.8917L100.172 84.1571L96.4383 84.4406C95.5997 80.2931 94.98 75.0417 94.5793 68.6864C94.4041 65.9079 94.2892 63.831 94.2345 62.4557C94.1879 61.2082 94.069 59.0674 93.8777 56.0334C93.8294 55.2669 93.7249 54.1192 93.5644 52.5903L93.4259 51.1562L93.7582 51.0871C95.4227 50.5333 97.3727 50.1859 99.6082 50.045L100.857 50.0143L102.15 49.9328C102.567 49.9385 103.207 49.9142 104.069 49.8599C104.932 49.8055 105.569 49.7493 105.983 49.6911C107.184 49.936 108.354 50.4394 109.493 51.2013C110.629 51.9312 111.549 52.803 112.255 53.8167L111.943 53.4515ZM108.42 66.996C108.384 66.4212 108.285 65.8663 108.123 65.3315C107.783 64.0062 107.411 62.9395 107.007 62.1313C106.602 61.2912 106.024 60.7665 105.273 60.5573L105.369 60.5513C104.598 60.5358 104.021 60.5401 103.638 60.5642C102.999 60.6045 102.586 60.6626 102.399 60.7386C102.535 61.8843 102.635 62.9681 102.7 63.9901L102.778 65.2356L102.812 66.532C102.826 67.2686 102.88 68.3714 102.973 69.8405C103.061 71.2457 103.113 72.3166 103.127 73.0531C103.618 73.2146 103.96 73.2892 104.151 73.2771L104.774 73.2379C105.285 73.2057 105.649 73.1346 105.867 73.0247C106.37 72.8647 106.908 72.2536 107.482 71.1914C108.204 69.9274 108.517 68.529 108.42 66.996Z" fill="#8B89FF"/>
<path d="M35.055 74.7961C35.1577 76.4248 35.3351 77.7122 35.5871 78.6582C35.8391 79.6043 36.2885 80.121 36.9353 80.2085L36.8874 80.2115L37.3216 80.2322C38.12 80.1819 38.7008 79.9849 39.0639 79.6414C39.427 79.2979 39.6403 78.8676 39.7039 78.3506C39.7994 77.8315 39.8659 77.1059 39.9033 76.1737C39.9068 75.2116 39.9632 74.3263 40.0725 73.5178C40.7492 73.5713 41.407 73.5779 42.0457 73.5377L44.2942 73.3478C45.5078 73.2713 46.4879 73.3057 47.2345 73.451C47.3085 73.6067 47.3495 73.7484 47.3575 73.8761C47.3955 73.9699 47.4514 74.0946 47.5254 74.2503L48.253 74.3487C48.7787 75.566 49.0828 76.8294 49.1653 78.1388C49.3063 80.3743 48.9032 82.3717 47.956 84.1308C47.0407 85.8878 45.6851 87.2719 43.8892 88.2829C42.0953 89.3258 40.0166 89.9218 37.6533 90.0708C35.9926 90.1755 34.3757 89.9569 32.8024 89.4148C31.2292 88.8727 29.8784 88.0441 28.75 86.9289C27.6515 85.7797 26.9721 84.4117 26.7117 82.825C26.3507 79.6414 26.0544 76.2132 25.8228 72.5405L25.4086 65.2081C25.4103 64.727 25.379 63.9755 25.3145 62.9535L25.2334 62.4296C25.1649 61.3437 25.3111 60.3566 25.6719 59.4681L25.6749 59.516C26.2806 57.4258 27.2698 55.8244 28.6425 54.7118C30.0451 53.5652 31.992 52.9134 34.483 52.7564C36.6866 52.6174 38.8477 53.0744 40.9661 54.1271C43.0846 55.1799 44.828 56.6411 46.1963 58.5107C47.5627 60.3484 48.3123 62.3211 48.4452 64.4289C48.5237 65.6745 48.3518 67.0159 47.9294 68.4534C47.0173 68.7353 46.0184 68.9105 44.9325 68.979C43.5273 69.0676 41.9354 68.9916 40.1567 68.7511L40.0126 67.9906C39.5615 67.9549 39.283 67.8603 39.1771 67.7066C39.0712 67.553 38.9882 67.2536 38.9281 66.8085C38.8979 66.3295 38.8598 65.9792 38.8137 65.7576C38.7657 65.5042 38.7066 65.075 38.6364 64.4702C38.5961 63.8315 38.4381 63.3605 38.1625 63.0573C37.8849 62.7221 37.4426 62.5736 36.8358 62.6119C36.4845 62.634 36.0894 62.723 35.6503 62.879C35.2432 63.0329 34.9648 63.1947 34.8152 63.3645C34.7554 63.4324 34.7109 64.2528 34.6818 65.8258C34.6507 67.3668 34.7238 69.5425 34.901 72.3529L35.055 74.7961ZM35.9788 61.223C36.841 61.1687 37.4939 61.352 37.9372 61.7729C38.3786 62.1619 38.6823 62.6558 38.8483 63.2545C39.0143 63.8532 39.1614 64.6616 39.2897 65.6795C39.3018 65.8711 39.3349 66.1416 39.389 66.4909C39.4431 66.8402 39.4942 67.1416 39.5422 67.395C40.9675 67.6258 42.4148 67.6949 43.8838 67.6022C44.7781 67.5459 45.6662 67.3937 46.5484 67.1457C46.8931 66.0017 47.0262 64.807 46.9476 63.5614C46.8208 61.5494 46.1611 59.7314 44.9685 58.1072C43.7759 56.483 42.2383 55.2333 40.3554 54.358C38.5046 53.4808 36.5572 53.1066 34.5132 53.2354C32.3415 53.3724 30.5504 53.9502 29.1397 54.969C27.727 55.9558 26.7188 57.5104 26.1151 59.6326C25.7903 60.5829 25.654 61.4732 25.7064 62.3036C25.7245 62.591 25.7526 62.7816 25.7905 62.8754C25.853 63.8654 25.8833 64.601 25.8816 65.0821L26.3018 72.5103C26.5314 76.1511 26.8267 79.5633 27.1877 82.7469C27.5163 84.9065 28.593 86.4738 30.418 87.4489C32.243 88.424 34.3052 88.8391 36.6046 88.6941C38.8402 88.5531 40.825 87.9951 42.5591 87.0201C44.2912 86.0131 45.6019 84.68 46.4912 83.0207C47.4105 81.3275 47.8027 79.4111 47.6678 77.2713C47.5913 76.0577 47.3441 74.935 46.9264 73.9033C46.3095 73.7819 45.4741 73.7544 44.4202 73.8208L41.8843 74.0288C41.533 74.051 41.0679 74.0482 40.489 74.0206C40.3894 74.4758 40.3389 75.2004 40.3375 76.1944C40.332 77.1246 40.2686 77.8981 40.1471 78.515C40.0556 79.0979 39.7824 79.5961 39.3275 80.0095C38.9046 80.421 38.23 80.6559 37.3039 80.7143C35.9306 80.8009 34.9761 80.1556 34.4404 78.7786C33.9346 77.3677 33.6092 75.5125 33.4643 73.213L33.3555 71.4884C33.1662 68.4864 33.1031 66.2139 33.1661 64.6709C33.2292 63.1278 33.3205 62.2884 33.4402 62.1526C33.6796 61.881 34.0508 61.6652 34.5537 61.5053C35.0566 61.3453 35.5316 61.2512 35.9788 61.223ZM71.4004 87.1735C70.137 87.4776 69.1221 87.6539 68.3556 87.7022C66.8866 87.7948 65.4393 87.7257 64.014 87.495C63.8621 87.1198 63.7352 86.8873 63.6334 86.7975C63.5315 86.7078 63.4157 86.6509 63.2859 86.6271C63.1582 86.6351 63.0614 86.6252 62.9955 86.5973C62.6897 85.815 62.2568 84.5437 61.6969 82.7834C61.375 81.7456 61.1031 80.9933 60.8813 80.5263C60.6914 80.0573 60.5006 79.8289 60.309 79.8409C60.0535 79.857 59.831 79.8871 59.6414 79.9311C59.4817 79.9412 59.2581 79.9553 58.9707 79.9734C58.7854 80.5943 58.6233 81.5825 58.4843 82.9379C58.3073 84.1995 58.1462 85.2037 58.0009 85.9503C57.8556 86.6969 57.6284 87.4166 57.3194 88.1094C57.2236 88.1155 57.0809 88.1405 56.8913 88.1845C56.7336 88.2265 56.527 88.2556 56.2715 88.2717C55.9182 88.2619 55.1827 88.2923 54.0649 88.3627L52.002 88.4447L49.46 88.5569L49.5433 87.5897L48.4415 87.6592L48.8886 84.072C49.4566 78.8418 50.1095 73.6865 50.8473 68.6061C51.5831 63.4936 52.5822 58.2363 53.8448 52.8342C54.4156 52.7341 54.7489 52.681 54.8448 52.6749C54.9725 52.6669 55.3887 52.6567 56.0933 52.6443C56.7979 52.632 58.261 52.4435 60.4824 52.079C60.6444 52.6139 60.7464 52.9601 60.7884 53.1178L61.5009 52.9767C61.8911 54.5873 63.1749 58.9312 65.3526 66.0082C66.1564 68.5867 66.5794 69.9548 66.6214 70.1124L71.4004 87.1735ZM60.1324 52.6301C58.7353 52.8465 57.35 52.9979 55.9768 53.0845L54.9708 53.1479C54.5875 53.1721 54.349 53.2032 54.2552 53.2412C53.0464 58.4796 52.0841 63.5582 51.3682 68.477C50.6843 73.3938 50.0204 78.63 49.3767 84.1855C49.3192 84.7983 49.2596 85.3792 49.198 85.9282C49.1344 86.4452 49.0798 86.8494 49.034 87.1409L49.1329 87.1828L50.2826 87.1103L54.0701 86.9196C54.3915 86.9314 54.7757 86.9232 55.2228 86.895C55.5741 86.8728 55.7807 86.8438 55.8426 86.8078L55.9833 86.7508C56.2405 86.2537 56.4278 85.6647 56.5452 84.984C56.6626 84.3032 56.7819 83.3979 56.903 82.2681C57.1096 80.4595 57.3375 79.2427 57.5867 78.6178C57.938 78.5957 58.2254 78.5775 58.4489 78.5635C58.6705 78.5174 58.8451 78.4904 58.9729 78.4823L59.5956 78.4431L60.5598 78.4785C60.8515 79.0372 61.1574 79.8195 61.4773 80.8254C61.8291 81.8292 62.0451 82.4569 62.125 82.7083C62.5391 84.1892 62.9319 85.3348 63.3036 86.145L63.3515 86.142C64.6152 86.3509 65.9337 86.412 67.3069 86.3254C68.1053 86.2751 68.9307 86.1429 69.7829 85.9289L69.7799 85.8809L65.1298 69.3408L60.1324 52.6301ZM56.8949 72.9862C57.0989 70.1197 57.193 68.8152 57.1772 69.0727C57.2978 66.9168 57.4077 65.3548 57.507 64.3866C57.6362 63.3845 57.7966 62.8774 57.9882 62.8653C58.2118 62.8512 58.4986 63.5866 58.8488 65.0716C59.2308 66.5545 59.7612 69.1182 60.4399 72.7627L58.0476 72.9616L56.8949 72.9862ZM58.8677 66.898L58.4456 72.4075L59.8348 72.3199L58.8677 66.898ZM68.4903 52.007C70.7696 51.5426 72.5748 51.1883 73.9061 50.9441C75.2693 50.6978 76.6695 50.5294 78.1066 50.4387C80.6935 50.2756 82.9322 50.4391 84.8228 50.9291C86.7453 51.4171 88.3916 52.3554 89.7617 53.7439C92.2404 56.4413 93.5562 59.0035 93.7092 61.4307C93.7958 62.804 93.581 64.2283 93.0648 65.7037C92.5466 67.1472 91.7449 68.4162 90.6596 69.5106C89.5743 70.6051 88.2543 71.2815 86.6995 71.5399C87.3388 72.5256 88.4434 74.027 90.0135 76.0442C91.4077 77.816 92.5474 79.3634 93.4324 80.6863C94.3174 82.0092 95.0966 83.435 95.7701 84.9637L96.0968 85.5683L95.4262 85.6106C94.9152 85.6428 94.0549 85.7291 92.8453 85.8695C91.4442 86.022 90.3763 86.1214 89.6418 86.1677C88.9711 86.21 88.1228 86.2314 87.0968 86.232C87.0269 86.1402 86.9539 86.0005 86.878 85.8129C86.804 85.6572 86.7002 85.5355 86.5664 85.4478C86.4645 85.358 86.3018 85.3202 86.0783 85.3343C84.1699 81.5108 82.2519 78.2971 80.3242 75.6932L80.4027 76.9388C80.4591 77.833 80.6577 79.7122 80.9987 82.5764C81.179 83.9117 81.2974 85.0265 81.3538 85.9207C80.7033 86.2824 79.9658 86.5373 79.1415 86.6855C78.3492 86.8316 77.3941 86.9399 76.2763 87.0104L74.1655 87.0954L71.387 87.2706C71.3148 86.6339 71.2555 85.9482 71.2092 85.2137L70.8864 80.8574L70.6418 76.9771C70.3277 71.995 69.9416 66.8891 69.4836 61.6596C69.0576 56.428 68.7265 53.2105 68.4903 52.007ZM85.1268 70.2442C86.7475 70.0138 88.1036 69.3993 89.1949 68.4006C90.2842 67.37 91.073 66.15 91.5612 64.7404C92.0495 63.3309 92.2504 61.9395 92.1638 60.5663C92.0571 58.8736 91.5232 57.272 90.5623 55.7615C89.6332 54.249 88.371 53.046 86.7757 52.1526C85.2122 51.2572 83.5023 50.836 81.646 50.8889C80.584 50.8276 79.3983 50.8383 78.0889 50.9208C76.6518 51.0114 75.2995 51.1768 74.0321 51.4171C72.7947 51.6233 71.147 51.9356 69.0893 52.354C69.3074 53.2701 69.6143 56.1044 70.0102 60.8569C70.406 65.6094 70.7741 70.6843 71.1144 76.0816L71.4255 81.0158C71.5221 82.5487 71.5736 83.6196 71.5799 84.2284L71.6736 85.7135C71.7714 85.7393 71.8842 85.7483 72.0119 85.7402C72.4271 85.714 72.7634 85.7089 73.0209 85.7247L74.9402 85.6518C76.1218 85.5773 77.1098 85.4829 77.9042 85.3687C78.6966 85.2226 79.3412 85.0216 79.8381 84.7658C79.3833 81.6202 79.0733 78.738 78.9082 76.1192C78.8317 74.9056 78.8161 73.8966 78.8616 73.0921L78.9665 73.2298C80.2727 74.6224 81.5881 76.4151 82.9127 78.6081C84.2353 80.7692 85.3922 82.8445 86.3834 84.8341L86.4313 84.8311C87.5212 84.8265 88.3535 84.8061 88.9284 84.7698C89.631 84.7255 90.619 84.6312 91.8924 84.4867C93.0381 84.3504 93.8505 84.2671 94.3296 84.2369C93.658 82.7402 92.8458 81.3004 91.8929 79.9177C90.938 78.5029 89.7804 76.9247 88.4201 75.1828C88.0685 74.6919 87.5092 73.9577 86.7422 72.98C86.0051 71.9684 85.3878 71.0775 84.8903 70.3072L85.1268 70.2442ZM79.8592 57.6387C80.945 57.5703 81.8604 57.8492 82.6053 58.4756C83.3482 59.07 83.7548 59.9261 83.8253 61.0439C83.8978 62.1936 83.6138 63.0292 82.9733 63.5505C82.3648 64.0698 81.326 64.3758 79.8569 64.4684C78.8669 64.5308 77.9697 64.5393 77.1652 64.4938L77.1173 64.4969C76.9873 63.96 76.8689 62.8452 76.7621 61.1526L76.5063 58.6197C77.6238 58.0362 78.7414 57.7092 79.8592 57.6387ZM80.9079 59.0155C80.0137 59.0718 79.0527 59.3409 78.025 59.8225C78.1412 60.6488 78.2194 61.3813 78.2597 62.0201L78.2994 63.4123L78.3896 64.08L79.8267 63.9894C80.5613 63.943 81.2609 63.8508 81.9255 63.7127L81.8776 63.7158C82.4124 63.5538 82.8095 63.2402 83.0687 62.7749C83.326 62.2778 83.4344 61.7098 83.3942 61.0711C83.3015 59.602 82.4728 58.9168 80.9079 59.0155ZM112.764 54.2655C114.268 56.2548 115.409 58.5876 116.187 61.264L116.136 61.2191C116.44 61.9694 116.667 63.0293 116.818 64.3985L116.846 67.1381C116.953 69.8568 116.907 71.9278 116.709 73.3511C116.161 75.3415 115.398 77.2332 114.421 79.0263C113.476 80.8173 112.341 82.6523 111.017 84.5314C107.957 84.8205 104.687 85.0748 101.205 85.2943C100.377 85.3786 99.2125 85.4681 97.7114 85.5627L97.5043 84.5658L96.6929 84.665C95.8543 80.5176 95.2296 75.1863 94.8188 68.6713C94.6476 65.9566 94.5347 63.9117 94.4801 62.5364L94.1172 56.0183C93.9863 53.9424 93.8727 52.3945 93.7763 51.3746C93.7723 51.3107 93.7852 51.2618 93.8152 51.2278C93.869 51.0641 93.9707 50.8974 94.1203 50.7276C94.9366 50.4517 95.7578 50.2557 96.5842 50.1394C97.4404 49.9893 98.4434 49.8779 99.5931 49.8054C100.583 49.743 101.335 49.7117 101.848 49.7114L104.054 49.6203C104.885 49.568 105.506 49.5128 105.92 49.4546C107.221 49.7573 108.527 50.3804 109.837 51.3238C111.145 52.2353 112.137 53.2149 112.812 54.2625L112.764 54.2655ZM104.516 50.0722C103.494 50.1366 102.71 50.17 102.165 50.1723L99.767 50.2754C97.5634 50.4144 95.7701 50.7038 94.387 51.1437L94.2554 51.3444C94.3517 52.3643 94.4644 53.8963 94.5932 55.9402L94.9561 62.4583C95.0128 63.8655 95.1307 65.9903 95.3099 68.8327C95.5113 72.0263 95.7364 74.8337 95.9852 77.2549C96.266 79.674 96.6356 81.9753 97.0939 84.1588L97.1388 84.1079C102.728 83.7555 106.924 83.4428 109.729 83.1698C111.083 81.2568 112.205 79.4706 113.094 77.8114C114.015 76.1501 114.708 74.4231 115.172 72.6303L115.214 72.5315C115.427 70.8187 115.474 68.5232 115.357 65.6449L115.317 63.4831C115.112 61.7646 114.667 60.0452 113.982 58.3249C113.296 56.6046 112.428 55.0402 111.377 53.6315C110.742 52.7096 109.922 51.9117 108.918 51.2375C107.945 50.5614 106.94 50.1278 105.902 49.9367L104.516 50.0722ZM105.834 73.2672C105.297 73.3973 104.741 73.4804 104.166 73.5167C103.432 73.563 102.896 73.4525 102.558 73.1852C102.402 71.7201 102.298 70.5884 102.248 69.79L102.093 66.5773C102.083 65.9047 102.039 64.9456 101.96 63.7C101.914 62.9655 101.82 61.9934 101.68 60.7839L101.668 60.5923L101.812 60.5832C102.381 60.4511 102.984 60.365 103.623 60.3247C105.539 60.2039 106.909 60.8229 107.732 62.1818C108.553 63.5088 109.022 65.0984 109.139 66.9507C109.23 68.3879 108.872 69.8373 108.066 71.2988C107.777 71.798 107.437 72.2523 107.046 72.6617C106.653 73.0392 106.281 73.239 105.93 73.2612L105.834 73.2672ZM107.668 71.0835C108.42 69.7856 108.75 68.4181 108.66 66.9809C108.616 66.2783 108.434 65.4401 108.117 64.4661C107.797 63.4603 107.39 62.6042 106.897 61.8978L106.402 61.6885C105.632 61.673 105.055 61.6773 104.672 61.7014C104.384 61.7196 103.891 61.7827 103.193 61.8909C103.333 63.1004 103.428 64.1044 103.479 64.9028L103.663 68.5945C103.704 70.2593 103.75 71.4908 103.8 72.2893L103.896 73.0527L104.136 73.0376C104.487 73.0155 104.822 72.9784 105.139 72.9263C105.454 72.8423 105.692 72.7952 105.852 72.7852L105.95 72.827C106.046 72.821 106.216 72.7141 106.459 72.5064L106.411 72.5094C106.872 72.1918 107.29 71.7005 107.665 71.0356L107.668 71.0835Z" fill="#404040"/>
<path d="M129 88.2174C129 92.2755 126.222 94.4348 122.333 95C118.345 95 114 92.2755 114 88.2174C114 84.1593 117.789 82 121.778 82C125.767 82 129 84.1593 129 88.2174Z" fill="#FFDD63"/>
<circle cx="122" cy="87" r="4.5" fill="#8B89FF" stroke="#404040"/>
</svg>
